<svg xmlns="http://www.w3.org/2000/svg" viewBox="0 0 605.3 591.94"><defs><style>.cls-1{fill:#ef720e;}.cls-2{fill:#787878;}.cls-3{fill:#b4b4b4;}.cls-4{fill:#a0a0a0;}</style></defs><g id="Layer_2" data-name="Layer 2"><g id="svg2848"><path class="cls-1" d="M419.13,317c1.31,25-6.21,46.42,19.53,56.27,17.57,10.09,35,17.08,53.71,9.29,10.15-5.73,31.08-11.51,36-24.17,6.09-41.2,0-161.26,2.79-203.91.18-21.76,17-23.76,36.73-23.48,19.66-.24,35.68,2.25,36.5,23.48,1.4,43.17.83,181.49.24,223-.28,27.78-7.84,35.45-32.09,46.5-53,24.76,5,75.25-60.22,77.89-20.61.25-97.87,7.34-106.71-12.55-4.25-12.59-1.4-37.27-7.21-46-3.86-12.65-29.61-22.92-40-29.76-19.7-14.6-11.78-49.69-13.72-77.89,2.48-26.92-5.64-173,4.42-195.3,6.29-12.6,59-13.07,65.1-.24C424.89,162,416.67,290.57,419.13,317Z"/><path class="cls-2" d="M141.82,43.35a294.19,294.19,0,0,0-78,69.14,268.31,268.31,0,0,0,34.91-4.68A319.13,319.13,0,0,1,141.82,43.35Z"/><path class="cls-3" d="M242.71,27.53A267.39,267.39,0,0,0,264,1.7a294,294,0,0,0-95.56,27.23A319.21,319.21,0,0,1,242.71,27.53Z"/><path class="cls-2" d="M169.36,82.92,155.49,57.33a298.84,298.84,0,0,0-31.13,44A272.46,272.46,0,0,0,169.36,82.92Z"/><path class="cls-4" d="M186.59,73.3a270.52,270.52,0,0,0,37.28-27.49,299.69,299.69,0,0,0-51,2.18Z"/><path class="cls-3" d="M424.68,29.43A297.72,297.72,0,0,0,289,.08a290,290,0,0,1-22.72,30.68A318.76,318.76,0,0,1,393.36,82.94,424.15,424.15,0,0,0,424.68,29.43Z"/><path class="cls-2" d="M64.53,265.18A318.67,318.67,0,0,1,88.7,129.63a289.36,289.36,0,0,1-39.65,3.19A297.47,297.47,0,0,0,1.86,263.3,423.76,423.76,0,0,0,64.53,265.18Z"/><path class="cls-4" d="M322.05,127.4l.26-.53c10.51-21.05,37-26,58.15-26.24.46-.59.94-1.18,1.39-1.78A298.84,298.84,0,0,0,250.26,48.06,288.67,288.67,0,0,1,196,90.6l63.3,116.82a422.48,422.48,0,0,0,55.62-38.9c1.08-20.18,3.23-32.42,6.92-40.59Z"/><path class="cls-2" d="M113.54,238.58l.88-.81.93-.75c21.16-16.69,44.54-16.69,60-16.69h8.54c4,0,8.76,0,13.63-.32l1.11-.06h1.12c3.24.06,7.23.09,12.55.09l12.55,0c3.71,0,7.5,0,11.27,0q2.94-1.48,5.87-3L178.76,100.27a289.83,289.83,0,0,1-66.84,24.85A298.51,298.51,0,0,0,84.07,263.84q7.61-.69,15.2-1.67C102.6,251.94,107.32,244.35,113.54,238.58Z"/><path class="cls-3" d="M501.21,153.28c.56-25.9,15-38.49,24.49-44a293.92,293.92,0,0,0-83.56-70.67A443.79,443.79,0,0,1,409.19,94.7a312.33,312.33,0,0,1,80.67,96.2q5.81,10.69,10.69,21.64C500.33,188.78,500.33,167.52,501.21,153.28Z"/><path class="cls-2" d="M107.53,410.5c-1.84-3.14-3.65-6.3-5.4-9.52A312.43,312.43,0,0,1,66,284.86,442.9,442.9,0,0,1,.3,282.93,294.18,294.18,0,0,0,32.83,431.37a589.14,589.14,0,0,0,63.79-2,47.17,47.17,0,0,1,4.85-11.11A42.09,42.09,0,0,1,107.53,410.5Z"/><path class="cls-4" d="M449.17,263.12q-.09,4.17-.16,8.33,20.17-19,38.31-39.55A298.53,298.53,0,0,0,448.56,163C450.2,185.22,450.06,217,449.17,263.12Z"/><path class="cls-4" d="M314.1,194.33a442.38,442.38,0,0,1-39,26.54c10.89.8,25.59,2.36,38.94,10.13C314,217.11,314,205,314.1,194.33Z"/><path class="cls-2" d="M94.87,282.52q-4.66.53-9.35,1a291.77,291.77,0,0,0,7.59,41.39C92.77,308.09,93.33,294.15,94.87,282.52Z"/><path class="cls-2" d="M219.66,533l-11.72,0c-3.06,0-5.88,0-8.38,0H198.4l-1.15-.07c-2.6-.18-5.58-.26-9.65-.26-2,0-4.12,0-6.19,0-2.26,0-4.53,0-6.79,0h-.1c-16.43,0-50.42-.06-70.71-28.11-5.48-7.53-12.23-21.39-10.13-55.31Q68.82,451.27,44,451.2A294.32,294.32,0,0,0,165.41,561.51a726.54,726.54,0,0,0,90.07-21.17q-8.1-3.45-16-7.35h-5.4C229.16,533,224.29,533,219.66,533Z"/><path class="cls-4" d="M449,314.2l.06.61,0,.61c.34,6.46.2,12.41.07,17.66-.09,4-.21,9.08.07,12.09l2.34.9,2,1.16c6.45,3.72,15.79,8.65,22.28,8.65a12,12,0,0,0,3.91-.64c3.17-1.66,6.49-3.14,9.71-4.58,2.72-1.21,7.09-3.15,10.15-4.84,1.44-16.5,1.68-41.92,1.54-68.89q-2.67-12-6.37-23.93a604.36,604.36,0,0,1-46.18,45.45C448.63,305.53,448.72,311.15,449,314.2Z"/><path class="cls-2" d="M371.87,457.44l-.85-1.28-.2-.66c-3.74-3-12-7.45-16.3-9.74-2.93-1.59-5.74-3.12-8.39-4.67-.23,12.71-.78,24.34-1.64,31.92-1.92,17.36-7.69,30.66-17.61,40.59-.55.55-1.12,1.09-1.69,1.61Q350.5,504.62,375.35,492c-1.6-7.42-2.06-15.12-2.5-22.63C372.63,465.62,372.32,460.31,371.87,457.44Z"/><path class="cls-2" d="M285.42,551.32a746.83,746.83,0,0,1-87.25,23.93,295.25,295.25,0,0,0,225.58-12.34A320.18,320.18,0,0,1,285.42,551.32Z"/><path class="cls-2" d="M383.36,510q-32.58,16.54-66,29.67a300,300,0,0,0,101.75,4.26l-9.09-16.78C399,523.67,389.76,518.28,383.36,510Z"/><path class="cls-1" d="M284.64,325.88c-35.9-.46-16.43-13.73-28.94-23.4-6.29-4.09-48.37-.94-56.45-1.9-24-.48-26.12,1.13-25.3,25.3-.68,24.51.86,26,25.3,25.3,21.73.12,66.17-.58,83.65,1.58,20.62,2.28,29.5,11.17,31.78,31.79,2.11,18.44,2.1,66.63,0,85.07-2.28,20.61-11.17,29.51-31.78,31.78-17.36,2.33-62,1.36-83.65,1.58-25.13-1.68-56.09,4.92-71.16-16-6.32-8.65-4.87-32.59-4-42.54,1-8.66,3.14-14.3,11.23-16.28,6.59-1.61,24-1.55,29.25.79,21.14,10.61-8.86,25.4,41,23.4,42,.89,38.92-1.29,37.31-39.85-1.16-15.26-30-9.5-43.64-10.75-34.12-1.24-68.86,4-73.85-34.63-1.71-22.07-7.45-91.74,8.54-106.58,17.65-13.93,38-9,65.31-10.59,19,.32,53.91-.46,71.16.63,15.83,1.1,29.72,2.75,37.95,15.34,6.31,8.66,4.94,32.61,3.79,42.54C311.07,324.94,299.21,326.09,284.64,325.88Z"/></g></g></svg>